# xmcd
#
# Track frame offsets: 
#        150
#        21527
#        41615
#        60605
#        74480
#        92107
#        108385
#        130680
#        148122
#        165080
#        183422
#        200222
#
# Disc length: 2913 seconds
#
# Revision: 0
# Processed by: cddbd v1.5.2PL0 Copyright (c) Steve Scherf et al.
# Submitted via: ExactAudioCopy v0.99pb5
#
DISCID=af0b5f0c
DTITLE=Wilson Meadows - Memories
DYEAR=1995
DGENRE=Funk
TTITLE0=When You're Gettin My Love
TTITLE1=I Promise
TTITLE2=Let's Cut Out This Game
TTITLE3=Everybody Needs Help
TTITLE4=Tell Him
TTITLE5=Memories Keep Hangin' On
TTITLE6=Where Will This Leave Me
TTITLE7=Stoll It
TTITLE8=Hold On My Heart
TTITLE9=Oh Gir
TTITLE10=Just Can't Do Without You
TTITLE11=Go On And Cry
EXTD=
EXTT0=
EXTT1=
EXTT2=
EXTT3=
EXTT4=
EXTT5=
EXTT6=
EXTT7=
EXTT8=
EXTT9=
EXTT10=
EXTT11=
PLAYORDER=
